<?xml version="1.0" encoding="UTF-8" standalone="no"?>
<!DOCTYPE svg PUBLIC "-//W3C//DTD SVG 1.1//EN" "http://www.w3.org/Graphics/SVG/1.1/DTD/svg11.dtd">
<svg xmlns="http://www.w3.org/2000/svg" version="1.1" viewBox="0.00 0.00 1656.00 706.00">
<path fill="#1b396a" d="
  M 84.82 0.00
  L 182.56 0.00
  L 187.23 4.20
  Q 187.56 4.50 188.01 4.50
  L 190.47 4.50
  A 0.86 0.86 0.0 0 1 191.21 4.92
  Q 193.22 8.24 193.49 9.50
  Q 200.30 41.26 206.96 73.06
  Q 207.06 73.57 207.57 73.54
  C 211.41 73.34 214.83 72.91 218.44 74.64
  C 221.21 75.98 223.64 77.74 226.77 77.93
  Q 229.95 78.11 233.17 77.96
  A 2.04 1.98 56.7 0 1 234.16 78.18
  L 242.02 82.30
  Q 242.55 82.58 243.00 82.18
  L 292.69 37.55
  A 4.41 4.40 -44.8 0 1 298.59 37.56
  L 302.41 41.01
  Q 302.86 41.41 303.45 41.30
  Q 306.70 40.71 309.66 42.84
  C 341.05 65.44 360.86 79.79 381.47 95.96
  Q 381.95 96.33 382.07 96.92
  L 384.80 109.63
  A 1.44 1.42 -38.7 0 1 384.70 110.50
  L 360.37 164.35
  Q 360.05 165.05 360.47 165.70
  Q 365.75 173.80 371.01 182.42
  C 372.12 184.23 373.72 185.20 375.28 186.55
  C 378.22 189.08 380.01 193.39 381.86 196.77
  Q 382.12 197.26 382.67 197.18
  L 443.96 188.06
  Q 444.47 187.98 444.85 188.33
  L 449.10 192.15
  A 1.33 1.32 -23.5 0 0 450.00 192.50
  L 452.79 192.50
  A 1.29 1.27 -17.3 0 1 453.84 193.04
  Q 456.94 197.38 458.59 202.47
  Q 472.16 244.23 485.91 285.96
  C 488.64 294.26 485.48 300.41 478.23 304.76
  Q 453.47 319.62 428.50 334.35
  Q 428.00 334.64 428.04 335.22
  Q 429.21 353.02 428.31 370.83
  Q 428.28 371.42 428.79 371.72
  Q 454.91 387.08 480.98 402.55
  Q 482.92 403.70 485.17 403.43
  Q 485.69 403.36 485.93 403.82
  C 488.59 408.75 487.98 418.25 486.68 422.18
  Q 474.32 459.64 461.91 497.09
  C 460.36 501.77 459.57 507.82 455.96 512.98
  Q 455.67 513.40 455.16 513.43
  Q 450.41 513.70 445.67 513.37
  Q 415.58 511.27 385.45 508.84
  Q 384.91 508.80 384.63 509.26
  Q 382.37 512.98 380.40 516.87
  C 378.86 519.93 375.35 521.23 373.39 524.49
  Q 368.57 532.53 363.71 540.17
  A 1.67 1.66 48.7 0 0 363.61 541.77
  Q 375.53 567.41 387.51 593.11
  C 390.98 600.57 386.22 610.90 379.99 615.50
  Q 346.68 640.11 313.22 664.52
  A 1.25 1.22 26.6 0 1 312.50 664.75
  L 308.74 664.75
  A 1.64 1.64 0.0 0 0 307.78 665.06
  Q 306.07 666.29 304.85 667.93
  A 4.85 4.85 0.0 0 1 297.26 668.17
  Q 296.43 667.19 293.58 664.67
  Q 270.61 644.28 247.59 623.89
  Q 247.20 623.54 246.73 623.77
  Q 239.34 627.51 232.04 631.45
  C 227.81 633.73 223.79 631.39 219.42 633.47
  Q 215.87 635.15 212.33 636.98
  Q 211.89 637.21 211.79 637.68
  Q 205.80 665.11 199.87 692.56
  C 198.62 698.38 195.97 702.07 191.94 706.00
  L 81.18 706.00
  C 78.10 702.51 75.00 698.97 73.93 694.24
  Q 67.65 666.32 61.35 638.24
  A 1.47 1.47 0.0 0 0 60.41 637.18
  L 8.49 619.34
  Q 8.00 619.17 8.00 618.64
  L 8.00 587.49
  A 0.46 0.46 0.0 0 1 8.68 587.09
  C 15.34 590.74 22.11 595.11 29.51 597.15
  Q 43.78 601.07 58.07 604.93
  Q 59.55 605.33 63.00 605.22
  Q 78.01 604.74 93.01 605.13
  Q 96.18 605.21 99.34 606.31
  Q 110.27 610.14 121.43 613.22
  Q 125.16 614.25 129.22 614.25
  Q 143.61 614.25 158.00 614.24
  Q 161.62 614.24 165.36 613.26
  C 171.08 611.76 176.94 610.97 182.24 608.42
  Q 203.93 597.98 214.27 591.04
  C 222.47 585.55 231.67 575.74 238.73 566.42
  C 242.26 561.77 243.67 553.87 245.22 548.25
  C 246.64 543.13 246.37 537.73 246.94 532.33
  Q 247.00 531.78 247.56 531.77
  C 253.73 531.71 261.10 532.62 266.96 530.79
  Q 272.02 529.20 277.02 527.47
  A 1.67 1.62 -80.0 0 0 277.81 526.90
  Q 285.28 516.73 292.85 506.72
  Q 294.55 504.46 295.23 501.86
  Q 298.52 489.18 299.55 476.17
  C 300.00 470.42 299.26 464.41 298.80 458.51
  C 298.31 452.28 296.40 446.73 294.73 440.73
  Q 294.58 440.20 295.06 439.93
  Q 301.52 436.27 308.04 432.86
  C 314.45 429.50 324.69 426.51 331.93 426.49
  C 336.89 426.48 342.22 425.86 346.97 427.59
  C 355.15 430.59 358.46 431.41 366.95 430.87
  Q 367.43 430.84 367.59 430.38
  C 369.58 424.72 371.67 419.22 372.97 413.43
  Q 377.57 392.86 378.64 382.93
  Q 382.27 348.95 378.12 321.07
  C 373.24 288.24 360.64 256.81 344.41 228.05
  C 341.24 222.44 336.46 218.64 332.95 213.33
  C 329.44 208.01 326.42 202.70 321.66 198.27
  C 318.92 195.72 316.35 193.39 314.06 190.33
  C 310.12 185.06 306.67 179.81 301.57 175.55
  Q 287.66 163.92 273.20 152.95
  C 269.72 150.30 265.88 149.45 261.84 147.95
  C 256.95 146.13 252.66 142.55 248.42 139.56
  C 244.30 136.65 239.91 135.56 235.23 134.00
  C 229.77 132.18 225.06 128.03 220.10 125.10
  C 216.02 122.68 211.59 121.67 206.97 120.14
  C 202.58 118.69 197.90 119.27 193.37 119.25
  C 187.75 119.22 182.48 117.03 177.17 115.40
  C 171.23 113.58 163.13 115.58 159.07 114.39
  C 153.07 112.64 146.46 109.96 140.17 109.99
  C 135.06 110.01 130.41 109.60 125.42 111.00
  C 120.01 112.52 114.84 114.49 109.19 114.62
  C 103.79 114.76 98.53 114.12 93.25 115.66
  Q 87.52 117.34 81.67 118.83
  A 0.22 0.21 37.3 0 0 81.73 119.25
  C 88.87 119.25 96.75 118.50 103.73 120.27
  Q 142.31 130.06 180.57 141.02
  Q 184.56 142.17 188.18 144.27
  Q 217.37 161.28 246.49 178.40
  Q 246.87 178.62 247.07 179.00
  Q 260.65 204.41 264.26 232.99
  Q 264.35 233.70 263.72 233.36
  Q 249.01 225.51 234.69 217.14
  C 230.18 214.51 225.26 213.58 220.32 212.11
  C 214.36 210.32 209.19 206.65 203.85 203.52
  C 199.21 200.79 194.30 199.79 189.21 198.21
  C 181.14 195.71 175.21 189.80 167.17 187.17
  Q 162.21 185.54 157.17 184.15
  C 150.03 182.16 143.26 184.60 136.04 182.64
  Q 122.45 178.94 108.85 175.31
  C 100.12 172.97 91.46 175.30 82.58 173.25
  C 76.29 171.80 69.42 169.38 62.96 169.50
  Q 36.47 170.00 9.98 169.41
  Q 9.46 169.40 9.22 168.94
  C 7.28 165.25 7.67 156.93 7.73 152.68
  Q 8.04 131.37 7.99 110.06
  C 7.97 105.56 7.48 98.17 8.05 92.13
  Q 8.10 91.60 8.59 91.41
  Q 12.26 90.01 15.83 88.49
  C 21.24 86.20 26.20 82.75 31.34 79.76
  C 36.02 77.03 41.05 75.89 46.21 74.35
  C 50.85 72.96 55.60 73.59 60.40 73.47
  Q 61.10 73.46 61.25 72.77
  L 74.57 9.80
  Q 74.71 9.14 75.38 9.08
  L 76.57 8.96
  Q 76.98 8.92 77.21 8.57
  Q 80.34 3.70 84.82 0.00
  Z"
/>
<path fill="#1b396a" d="
  M 151.01 197.02
  A 0.41 0.40 29.7 0 1 151.20 197.70
  Q 146.46 202.51 142.96 208.37
  C 140.92 211.77 140.69 215.49 139.87 219.41
  Q 139.74 220.02 139.18 219.75
  C 132.19 216.40 125.09 211.99 117.62 210.05
  Q 102.99 206.27 88.32 202.70
  C 82.45 201.27 76.64 201.77 70.65 201.75
  C 60.84 201.74 52.28 197.01 42.49 196.98
  C 36.90 196.97 31.22 197.73 25.77 196.43
  Q 16.98 194.32 8.19 192.28
  Q 7.70 192.16 7.65 191.67
  Q 6.98 185.48 7.89 179.29
  Q 7.97 178.76 8.51 178.76
  Q 34.11 178.74 59.68 178.75
  C 66.19 178.76 72.48 181.03 78.70 182.72
  C 83.72 184.09 88.97 183.24 94.15 183.34
  Q 98.48 183.43 103.21 184.66
  Q 127.03 190.84 151.01 197.02
  Z"
/>
<path fill="#1b396a" d="
  M 324.91 300.90
  C 320.84 295.33 314.34 291.00 308.97 286.68
  C 303.79 282.51 297.27 280.13 291.29 277.32
  C 284.59 274.17 277.71 272.67 270.62 270.67
  Q 270.09 270.53 270.17 269.98
  C 271.31 262.72 273.23 255.56 273.28 248.35
  C 273.37 236.51 272.45 229.42 270.26 216.76
  C 268.83 208.49 265.75 201.04 262.85 193.24
  A 0.34 0.33 -85.8 0 1 263.32 192.83
  C 270.76 196.82 278.20 201.17 286.49 203.30
  C 290.14 204.24 297.28 205.30 299.94 207.87
  Q 312.17 219.70 326.78 228.45
  Q 327.50 228.88 328.53 230.46
  Q 337.78 244.53 346.81 258.75
  Q 348.54 261.48 349.33 264.59
  C 352.01 275.19 353.47 281.20 354.06 290.18
  C 354.46 296.29 353.30 302.30 352.57 308.42
  C 352.04 312.83 347.59 324.11 344.18 326.92
  Q 337.18 332.72 330.42 338.83
  Q 330.05 339.16 329.80 338.73
  L 327.68 335.19
  A 1.77 1.76 48.6 0 1 327.80 333.20
  Q 330.88 329.19 332.48 324.32
  C 333.68 320.70 333.59 313.36 331.32 310.01
  Q 328.19 305.39 324.91 300.90
  Z"
/>
<path fill="#1b396a" d="
  M 123.63 219.95
  A 0.27 0.27 0.0 0 1 123.84 220.24
  C 123.32 227.75 121.94 234.76 123.56 242.25
  A 0.49 0.48 0.8 0 1 122.97 242.82
  Q 97.10 236.53 71.42 230.28
  C 62.29 228.06 53.38 230.40 44.23 228.23
  Q 27.47 224.26 10.72 220.18
  Q 10.23 220.06 9.98 219.62
  Q 4.96 211.03 9.73 202.25
  Q 9.98 201.79 10.50 201.78
  C 18.36 201.67 26.50 201.07 34.20 202.95
  Q 47.19 206.11 60.18 209.24
  Q 66.38 210.74 71.85 210.94
  C 77.73 211.15 83.83 210.39 89.55 211.79
  Q 106.15 215.83 123.63 219.95
  Z"
/>
<path fill="#1b396a" d="
  M 191.34 207.69
  Q 196.76 214.30 199.05 222.51
  C 200.62 228.13 198.53 240.56 193.25 244.06
  Q 187.42 247.92 181.15 251.00
  C 178.01 252.55 174.66 252.00 171.27 251.99
  C 167.99 251.98 161.90 248.90 159.86 246.33
  C 154.92 240.10 150.76 231.85 151.70 223.81
  Q 152.34 218.27 155.08 213.31
  C 157.65 208.65 165.42 205.15 170.09 202.94
  C 176.49 199.91 186.80 202.17 191.34 207.69
  Z
  M 192.41 223.25
  Q 192.87 219.47 191.50 215.88
  Q 191.36 215.50 190.95 215.50
  L 180.06 215.50
  Q 179.64 215.50 179.45 215.89
  Q 177.57 219.87 178.81 224.09
  Q 179.01 224.75 179.70 224.75
  L 180.29 224.75
  Q 180.82 224.75 181.08 225.22
  L 182.90 228.50
  A 2.25 2.25 0.0 0 0 186.99 228.16
  Q 187.68 226.24 189.10 224.80
  A 0.94 0.93 -58.6 0 1 190.06 224.56
  Q 191.39 225.01 192.19 224.45
  Q 192.65 224.13 192.47 223.71
  Q 192.38 223.49 192.41 223.25
  Z"
/>
<path fill="#1b396a" d="
  M 150.47 252.55
  L 174.89 261.24
  Q 175.38 261.41 175.88 261.24
  L 200.52 252.53
  A 2.94 2.93 4.8 0 0 202.11 251.19
  C 204.68 246.67 208.97 240.92 209.81 235.77
  Q 211.02 228.33 212.05 220.99
  A 0.61 0.61 0.0 0 1 212.85 220.49
  Q 216.85 221.81 220.76 223.17
  C 228.97 226.00 234.39 232.36 242.47 235.19
  Q 253.29 238.98 264.12 242.78
  Q 264.59 242.95 264.61 243.45
  Q 264.77 251.02 263.26 258.38
  C 261.58 266.60 260.66 275.72 257.46 283.49
  A 0.91 0.90 -69.9 0 1 256.35 284.01
  Q 242.86 279.66 229.26 275.91
  Q 225.79 274.95 222.10 275.00
  Q 199.28 275.33 176.45 275.22
  C 170.84 275.20 164.58 277.95 159.17 279.48
  Q 158.69 279.62 158.27 279.34
  Q 153.23 275.98 148.45 272.36
  C 140.83 266.61 136.17 255.14 133.23 246.35
  C 131.21 240.31 132.28 231.49 132.59 225.11
  Q 132.61 224.64 133.08 224.63
  L 138.31 224.49
  Q 138.96 224.47 139.11 225.12
  Q 140.31 230.31 141.54 235.42
  C 142.95 241.26 147.22 246.93 150.09 252.22
  A 0.68 0.65 -3.0 0 0 150.47 252.55
  Z"
/>
<path fill="#1b396a" d="
  M 1144.37 236.00
  L 1137.93 235.93
  A 0.39 0.39 0.0 0 1 1137.62 235.30
  L 1146.01 224.50
  A 0.39 0.39 0.0 0 1 1146.62 224.50
  L 1150.02 228.79
  A 0.39 0.39 0.0 0 1 1150.01 229.27
  L 1144.68 235.85
  A 0.39 0.39 0.0 0 1 1144.37 236.00
  Z"
/>
<path fill="#1b396a" d="
  M 124.56 255.94
  C 130.25 258.64 135.79 272.48 139.06 278.34
  C 140.35 280.63 142.44 281.90 144.31 283.65
  A 0.34 0.34 0.0 0 1 144.08 284.24
  C 135.08 284.26 124.11 285.36 115.39 283.23
  Q 80.54 274.69 45.53 266.79
  C 39.05 265.32 32.66 260.93 26.69 257.98
  C 21.76 255.55 16.05 254.21 10.64 252.31
  Q 10.15 252.14 9.93 251.68
  C 6.89 245.56 5.38 234.80 10.88 229.66
  Q 11.24 229.32 11.72 229.44
  Q 38.27 235.77 64.82 242.03
  C 70.91 243.47 76.93 242.97 83.12 243.01
  C 89.75 243.05 95.65 244.81 102.01 246.36
  C 109.93 248.28 117.23 252.45 124.56 255.94
  Z"
/>
<path fill="#1b396a" d="
  M 1194.19 320.33
  Q 1193.01 319.31 1192.32 317.90
  C 1190.03 313.25 1186.54 307.85 1185.63 302.42
  C 1184.20 293.95 1183.08 288.39 1183.70 281.46
  C 1184.17 276.24 1187.32 263.57 1190.72 259.66
  Q 1195.70 253.91 1200.59 248.10
  Q 1200.91 247.71 1201.40 247.56
  C 1206.93 245.85 1216.50 241.88 1222.11 242.72
  Q 1231.32 244.08 1238.69 250.05
  Q 1239.03 250.33 1239.00 250.78
  L 1237.46 270.74
  A 0.38 0.38 0.0 0 1 1236.76 270.92
  C 1232.76 264.92 1221.65 256.60 1214.14 261.51
  Q 1209.68 264.42 1205.18 267.22
  A 1.69 1.67 -5.2 0 0 1204.55 267.97
  C 1202.37 273.34 1199.30 279.24 1199.15 284.94
  C 1198.94 293.61 1202.42 309.83 1212.93 312.21
  C 1217.73 313.30 1221.70 314.74 1226.53 311.88
  A 0.97 0.96 74.7 0 0 1227.00 311.05
  L 1227.00 299.99
  A 0.51 0.50 89.4 0 0 1226.49 299.48
  L 1215.25 299.55
  Q 1214.75 299.56 1214.75 299.06
  L 1214.75 283.00
  A 0.50 0.50 0.0 0 1 1215.25 282.50
  L 1241.75 282.50
  Q 1242.25 282.50 1242.25 283.00
  L 1242.25 322.74
  Q 1242.25 323.28 1241.80 323.59
  Q 1232.59 329.89 1221.86 331.48
  C 1216.66 332.24 1211.29 330.50 1206.22 329.15
  C 1201.93 328.02 1197.50 323.22 1194.19 320.33
  Z"
/>
<path fill="#1b396a" d="
  M 878.53 317.74
  C 874.67 314.17 872.65 305.29 870.92 300.25
  C 867.91 291.46 869.71 282.23 870.98 273.37
  C 871.83 267.34 875.74 261.09 878.45 255.66
  Q 878.69 255.20 879.13 254.93
  L 899.59 242.57
  A 1.23 1.20 -55.8 0 1 900.38 242.41
  C 904.47 242.99 909.29 242.84 912.93 244.73
  Q 917.66 247.17 922.13 250.10
  Q 922.50 250.35 922.50 250.79
  L 922.50 272.04
  Q 922.50 274.29 921.23 272.43
  Q 914.90 263.22 904.04 260.73
  A 1.36 1.32 36.5 0 0 903.08 260.86
  L 890.31 267.83
  Q 889.86 268.08 889.68 268.57
  C 887.92 273.47 883.73 282.19 884.74 287.25
  Q 886.14 294.20 887.52 301.14
  Q 887.63 301.69 888.02 302.09
  L 897.26 311.56
  Q 897.60 311.91 898.08 311.95
  Q 901.26 312.22 904.42 312.43
  C 910.77 312.86 917.24 306.70 921.87 303.17
  Q 922.50 302.68 922.50 303.48
  L 922.50 323.46
  Q 922.50 323.89 922.13 324.12
  C 918.27 326.49 914.27 329.70 909.74 330.51
  C 906.28 331.13 903.29 332.09 899.75 331.40
  C 896.25 330.73 892.61 330.53 889.84 328.04
  Q 884.13 322.92 878.53 317.74
  Z"
/>
<path fill="#1b396a" d="
  M 1040.22 245.15
  C 1044.37 246.23 1052.58 253.74 1054.46 257.59
  C 1056.93 262.67 1060.05 267.78 1060.87 273.44
  C 1061.72 279.28 1063.10 285.10 1062.27 291.01
  C 1061.49 296.58 1061.27 302.65 1058.78 307.78
  C 1056.74 312.00 1055.07 317.08 1051.69 320.37
  C 1048.68 323.31 1044.60 328.00 1040.46 329.07
  Q 1036.30 330.16 1032.18 331.33
  C 1028.55 332.36 1022.88 330.07 1019.26 329.10
  C 1015.16 328.01 1011.52 323.66 1008.55 320.77
  C 1005.03 317.34 1003.45 312.89 1001.34 308.54
  C 998.66 303.03 998.25 297.21 997.48 291.25
  C 996.69 285.07 997.99 279.15 998.93 273.05
  C 999.75 267.77 1004.36 257.37 1008.27 253.71
  C 1011.25 250.92 1014.73 246.74 1018.67 245.50
  Q 1023.26 244.06 1027.95 242.92
  C 1031.48 242.05 1036.71 244.24 1040.22 245.15
  Z
  M 1018.03 268.37
  Q 1017.86 268.51 1017.73 268.74
  Q 1008.88 285.68 1016.36 302.79
  C 1017.54 305.50 1019.46 307.35 1021.49 309.45
  C 1023.58 311.60 1026.49 311.82 1029.24 312.79
  A 1.78 1.77 47.1 0 0 1030.25 312.83
  C 1033.32 312.02 1036.34 311.36 1038.65 309.07
  C 1048.31 299.50 1048.56 283.07 1043.34 271.45
  C 1042.14 268.78 1040.28 266.89 1038.25 264.81
  C 1036.07 262.56 1033.40 262.35 1030.53 261.34
  Q 1030.07 261.18 1029.61 261.33
  C 1024.34 263.03 1022.29 263.22 1018.71 267.83
  A 0.89 0.01 -37.8 0 1 1018.03 268.37
  Z"
/>
<path fill="#1b396a" d="
  M 1165.05 253.61
  Q 1167.02 255.62 1169.11 259.47
  C 1171.28 263.50 1173.95 268.46 1174.70 273.64
  C 1175.50 279.23 1176.90 284.93 1176.10 290.59
  C 1175.32 296.20 1175.08 302.34 1172.64 307.50
  C 1170.57 311.88 1168.70 317.26 1165.16 320.64
  C 1162.19 323.47 1158.55 327.76 1154.57 328.95
  Q 1150.16 330.27 1145.68 331.34
  C 1141.90 332.24 1136.15 329.88 1132.43 328.82
  C 1128.76 327.78 1125.19 323.38 1122.37 320.83
  C 1118.27 317.10 1113.32 305.98 1112.58 300.51
  Q 1111.79 294.75 1110.97 289.01
  C 1110.29 284.28 1112.13 276.96 1112.86 272.08
  Q 1113.24 269.49 1114.60 267.27
  Q 1119.77 258.85 1124.86 250.39
  Q 1125.11 249.96 1125.57 249.77
  L 1143.26 242.59
  Q 1143.68 242.42 1144.12 242.53
  Q 1149.42 243.85 1154.63 245.34
  C 1158.64 246.48 1162.20 250.72 1165.05 253.61
  Z
  M 1137.99 262.91
  C 1135.06 263.67 1131.06 269.32 1129.99 271.84
  Q 1123.44 287.21 1130.05 302.56
  C 1131.27 305.39 1133.20 307.32 1135.33 309.50
  C 1139.29 313.52 1148.01 313.46 1151.97 309.43
  C 1153.95 307.43 1155.86 305.62 1157.02 303.02
  Q 1164.11 287.14 1157.04 271.29
  C 1155.94 268.80 1154.27 267.17 1152.46 265.17
  C 1150.19 262.66 1147.34 262.26 1144.25 261.37
  Q 1143.79 261.23 1143.33 261.38
  Q 1140.65 262.22 1137.99 262.91
  Z"
/>
<path fill="#1b396a" d="
  M 1300.53 268.45
  C 1298.38 274.25 1294.42 282.38 1295.80 288.61
  Q 1297.19 294.91 1298.29 301.24
  A 1.48 1.47 -72.5 0 0 1298.70 302.03
  L 1308.06 311.55
  Q 1308.43 311.92 1308.95 311.96
  Q 1312.10 312.20 1315.22 312.42
  C 1321.57 312.86 1328.01 306.75 1332.60 303.17
  Q 1333.25 302.67 1333.25 303.49
  L 1333.25 323.47
  Q 1333.25 323.98 1332.81 324.25
  Q 1329.22 326.38 1325.77 328.55
  C 1322.08 330.88 1314.46 332.29 1310.19 331.35
  C 1307.16 330.68 1303.46 330.51 1301.06 328.34
  Q 1294.85 322.73 1288.75 316.99
  C 1285.52 313.95 1283.51 305.37 1282.00 301.05
  C 1278.72 291.72 1280.47 282.76 1281.76 273.34
  C 1282.59 267.31 1286.56 261.04 1289.33 255.65
  Q 1289.56 255.20 1289.99 254.94
  L 1310.17 242.66
  A 1.58 1.54 32.1 0 1 1311.15 242.45
  C 1315.41 242.97 1320.59 242.82 1324.36 244.93
  Q 1328.67 247.35 1332.83 249.99
  Q 1333.25 250.26 1333.25 250.75
  L 1333.25 272.75
  Q 1333.25 273.41 1332.78 272.94
  C 1326.95 266.96 1323.67 262.54 1314.90 260.68
  A 1.32 1.30 36.2 0 0 1314.03 260.81
  L 1301.06 267.84
  Q 1300.68 268.04 1300.53 268.45
  Z"
/>
<path fill="#1b396a" d="
  M 1355.20 326.00
  C 1352.34 323.27 1347.93 319.97 1346.28 316.44
  C 1344.07 311.67 1341.02 306.90 1340.17 301.68
  C 1339.19 295.68 1337.84 289.77 1338.55 283.70
  Q 1339.15 278.60 1339.96 273.52
  C 1340.81 268.14 1343.53 263.58 1345.83 258.70
  C 1348.03 254.04 1353.06 250.29 1356.83 246.86
  A 5.11 5.08 -73.6 0 1 1358.87 245.74
  C 1363.34 244.52 1368.82 242.24 1373.43 242.83
  C 1392.78 245.28 1403.43 266.21 1403.78 284.33
  C 1403.88 289.48 1402.77 295.42 1401.97 300.87
  C 1401.19 306.23 1396.61 316.89 1392.62 320.58
  C 1389.80 323.20 1386.06 327.81 1382.35 328.86
  C 1378.40 329.98 1372.91 332.19 1368.86 331.30
  C 1364.29 330.30 1358.71 329.33 1355.20 326.00
  Z
  M 1365.05 263.11
  C 1362.72 263.88 1358.73 268.64 1357.73 270.86
  Q 1350.39 287.17 1357.70 303.26
  C 1358.98 306.06 1361.35 307.96 1363.38 310.33
  A 1.77 1.77 0.0 0 0 1364.19 310.86
  Q 1366.58 311.57 1368.99 312.28
  C 1375.22 314.12 1382.11 308.27 1384.43 302.97
  Q 1391.41 287.08 1384.42 271.24
  C 1383.10 268.25 1380.61 266.16 1378.42 263.72
  A 1.27 1.20 76.5 0 0 1377.90 263.38
  L 1371.69 261.40
  Q 1371.15 261.22 1370.60 261.38
  Q 1367.80 262.21 1365.05 263.11
  Z"
/>
<path fill="#1b396a" d="
  M 791.00 263.31
  L 791.00 328.69
  A 0.56 0.56 0.0 0 1 790.44 329.25
  L 776.06 329.25
  A 0.56 0.56 0.0 0 1 775.50 328.69
  L 775.50 263.31
  A 0.56 0.56 0.0 0 0 774.94 262.75
  L 755.56 262.75
  A 0.56 0.56 0.0 0 1 755.00 262.19
  L 755.00 245.71
  A 0.56 0.56 0.0 0 1 755.56 245.15
  L 810.94 245.14
  A 0.56 0.56 0.0 0 1 811.50 245.70
  L 811.50 262.19
  A 0.56 0.56 0.0 0 1 810.94 262.75
  L 791.56 262.75
  A 0.56 0.56 0.0 0 0 791.00 263.31
  Z"
/>
<path fill="#1b396a" d="
  M 836.79 311.50
  L 860.66 311.50
  A 0.59 0.59 0.0 0 1 861.25 312.09
  L 861.25 328.36
  A 0.59 0.59 0.0 0 1 860.66 328.95
  L 821.59 329.11
  A 0.59 0.59 0.0 0 1 821.00 328.52
  L 821.00 245.58
  A 0.59 0.59 0.0 0 1 821.59 244.99
  L 860.41 245.02
  A 0.59 0.59 0.0 0 1 861.00 245.61
  L 861.00 261.69
  A 0.59 0.59 0.0 0 1 860.41 262.28
  L 836.84 262.26
  A 0.59 0.59 0.0 0 0 836.25 262.85
  L 836.25 277.16
  A 0.59 0.59 0.0 0 0 836.86 277.75
  L 850.14 277.41
  A 0.59 0.59 0.0 0 1 850.75 278.00
  L 850.75 294.45
  A 0.59 0.59 0.0 0 1 850.15 295.04
  L 836.82 294.92
  A 0.59 0.59 0.0 0 0 836.23 295.50
  L 836.20 310.91
  A 0.59 0.59 0.0 0 0 836.79 311.50
  Z"
/>
<path fill="#1b396a" d="
  M 947.96 283.68
  A 0.36 0.36 0.0 0 0 947.25 283.76
  L 947.25 328.02
  Q 947.25 328.98 946.29 329.00
  L 933.47 329.24
  A 0.46 0.46 0.0 0 1 933.00 328.78
  L 932.98 245.71
  Q 932.98 245.14 933.54 245.08
  C 935.16 244.90 936.58 245.10 937.72 246.48
  Q 955.91 268.66 974.12 290.93
  A 0.25 0.25 0.0 0 0 974.57 290.77
  L 974.47 245.77
  A 0.77 0.76 90.0 0 1 975.23 245.00
  L 988.25 245.00
  Q 988.74 245.00 988.74 245.50
  L 988.76 328.25
  Q 988.76 328.72 988.31 328.86
  Q 985.31 329.79 983.24 327.27
  Q 965.79 305.98 948.29 284.77
  Q 948.05 284.48 948.02 284.10
  Q 947.99 283.85 947.96 283.68
  Z"
/>
<path fill="#1b396a" d="
  M 1070.77 328.56
  L 1070.74 245.59
  A 0.56 0.56 0.0 0 1 1071.30 245.03
  L 1085.69 245.07
  A 0.56 0.56 0.0 0 1 1086.25 245.63
  L 1086.25 310.58
  A 0.56 0.56 0.0 0 0 1086.81 311.14
  L 1110.94 311.03
  A 0.56 0.56 0.0 0 1 1111.50 311.59
  L 1111.50 328.40
  A 0.56 0.56 0.0 0 1 1110.94 328.96
  L 1071.33 329.12
  A 0.56 0.56 0.0 0 1 1070.77 328.56
  Z"
/>
<path fill="#1b396a" d="
  M 1255.93 329.28
  A 0.67 0.66 89.2 0 1 1255.25 328.61
  L 1255.25 245.95
  Q 1255.25 245.39 1255.74 245.14
  Q 1256.39 244.79 1257.12 245.16
  A 0.54 0.53 57.8 0 0 1257.42 245.23
  L 1269.70 244.92
  A 1.03 1.03 0.0 0 1 1270.75 245.95
  L 1270.75 327.77
  Q 1270.75 328.28 1270.53 328.73
  Q 1270.15 329.51 1269.53 329.17
  Q 1269.20 328.98 1268.82 328.99
  L 1255.93 329.28
  Z"
/>
<path fill="#1b396a" d="
  M 121.20 293.71
  C 115.89 298.01 112.12 302.72 107.95 306.94
  A 1.29 1.28 -67.6 0 1 107.03 307.33
  Q 67.40 306.97 27.86 307.11
  C 22.88 307.12 16.47 310.17 11.56 311.49
  Q 11.07 311.62 10.91 311.14
  C 6.20 297.13 6.16 286.10 7.47 270.84
  A 1.16 1.14 73.6 0 1 7.91 270.02
  L 12.74 266.29
  Q 13.16 265.96 13.69 266.09
  L 124.31 292.98
  A 0.28 0.28 0.0 0 1 124.23 293.53
  L 122.15 293.40
  Q 121.61 293.37 121.20 293.71
  Z"
/>
<path fill="#1b396a" d="
  M 247.14 329.30
  Q 249.78 325.87 249.49 321.47
  A 0.63 0.63 0.0 0 1 250.19 320.80
  L 252.34 321.05
  A 0.70 0.69 -75.5 0 0 253.06 320.62
  L 254.50 316.98
  A 0.52 0.52 0.0 0 0 254.03 316.27
  C 250.34 316.19 247.02 316.58 243.47 315.54
  Q 237.39 313.75 231.33 311.93
  A 0.38 0.38 0.0 0 1 231.19 311.27
  C 234.52 308.42 241.32 302.69 245.84 302.72
  Q 253.55 302.77 261.25 302.65
  Q 261.76 302.65 261.89 302.15
  L 267.43 280.17
  Q 267.54 279.71 268.00 279.82
  L 286.18 284.08
  A 1.04 1.04 0.0 0 1 286.94 284.80
  L 289.29 293.02
  Q 289.43 293.52 289.27 294.01
  C 286.87 301.60 285.39 306.86 280.39 311.42
  A 1.29 1.25 23.0 0 1 279.53 311.75
  L 266.01 311.75
  A 0.46 0.46 0.0 0 0 265.58 312.38
  C 268.58 320.35 272.55 328.10 274.97 335.97
  C 278.22 346.56 285.51 360.65 277.89 370.91
  Q 277.59 371.30 277.10 371.30
  L 265.82 371.23
  A 0.58 0.56 26.0 0 0 265.48 371.34
  L 259.91 375.47
  Q 259.49 375.77 259.42 376.28
  L 258.33 384.08
  Q 258.25 384.72 258.81 385.02
  L 259.24 385.26
  A 0.63 0.62 -65.5 0 1 259.53 386.05
  L 258.21 389.20
  A 0.71 0.70 11.4 0 1 257.54 389.64
  L 252.32 389.50
  Q 251.69 389.49 251.79 390.11
  Q 252.02 391.69 253.19 394.32
  Q 254.88 398.13 252.64 403.00
  Q 252.47 403.37 252.06 403.38
  L 245.18 403.48
  A 0.93 0.92 -71.7 0 0 244.47 403.84
  L 241.85 407.31
  A 1.99 1.99 0.0 0 1 239.80 408.03
  Q 232.86 406.29 225.92 404.13
  C 221.48 402.75 212.63 396.09 210.34 392.04
  Q 207.92 387.77 205.59 383.47
  C 198.09 369.63 199.42 349.69 207.19 336.28
  C 209.95 331.52 212.54 326.90 216.14 322.66
  Q 220.62 317.39 225.17 312.18
  A 0.59 0.59 0.0 0 1 225.93 312.07
  L 238.58 320.10
  A 0.48 0.48 0.0 0 1 238.30 320.98
  L 232.30 320.68
  A 0.57 0.57 0.0 0 0 231.83 321.62
  L 234.78 325.14
  A 1.00 1.00 0.0 0 0 235.55 325.50
  L 246.31 325.50
  Q 246.87 325.50 246.82 326.06
  L 246.50 329.04
  A 0.36 0.36 0.0 0 0 247.14 329.30
  Z"
/>
<path fill="#1b396a" d="
  M 181.32 315.32
  Q 173.72 311.34 165.79 308.05
  C 160.02 305.66 154.26 308.12 148.23 305.94
  C 144.17 304.48 140.36 302.68 136.10 302.50
  C 131.89 302.32 128.39 302.14 124.43 304.15
  Q 122.04 305.37 119.68 306.35
  Q 118.63 306.79 119.56 306.13
  Q 131.58 297.56 145.04 290.51
  C 151.22 287.27 162.66 284.23 169.65 284.24
  Q 193.30 284.27 216.94 284.24
  Q 221.06 284.24 224.93 285.25
  Q 238.52 288.81 251.88 293.04
  A 0.22 0.22 0.0 0 1 251.80 293.47
  C 247.68 293.23 239.21 292.25 235.66 294.43
  C 229.86 298.01 224.05 301.92 217.68 304.24
  Q 213.79 305.66 209.86 306.92
  Q 209.38 307.08 209.07 307.48
  Q 205.67 311.89 202.23 316.29
  C 197.90 321.83 195.08 327.76 191.89 333.98
  Q 191.47 334.78 191.24 333.91
  C 190.26 330.18 189.93 326.72 187.83 323.47
  C 186.06 320.75 184.27 316.87 181.32 315.32
  Z"
/>
<path fill="#1b396a" d="
  M 11.64 343.52
  C 5.58 338.78 6.31 328.27 8.00 321.01
  Q 8.28 319.76 11.31 316.82
  Q 11.64 316.50 12.11 316.50
  Q 27.49 316.51 42.86 316.49
  C 51.89 316.48 59.68 311.75 68.75 311.75
  Q 99.40 311.75 130.04 311.75
  C 136.99 311.75 144.27 314.45 150.98 316.14
  A 0.35 0.35 0.0 0 1 151.06 316.78
  L 143.79 320.67
  A 1.18 1.16 83.6 0 0 143.21 321.41
  Q 141.79 326.81 140.33 332.12
  C 139.39 335.59 139.94 338.38 140.36 341.80
  C 140.81 345.49 144.01 349.08 145.98 352.23
  A 0.36 0.36 0.0 0 1 145.59 352.77
  C 138.25 351.07 130.60 348.47 123.18 348.29
  C 117.50 348.15 111.51 349.13 105.99 347.81
  C 98.57 346.04 91.19 343.76 83.50 343.75
  Q 47.96 343.70 12.44 343.79
  A 1.33 1.29 -25.5 0 1 11.64 343.52
  Z"
/>
<path fill="#1b396a" d="
  M 157.33 351.91
  C 153.81 349.39 149.37 345.73 148.77 341.23
  C 148.20 336.95 146.98 333.24 149.87 329.31
  Q 153.33 324.59 158.23 321.30
  A 1.86 1.80 -60.8 0 1 159.23 321.00
  L 171.52 321.00
  A 1.77 1.75 -28.1 0 1 172.49 321.29
  C 176.79 324.16 181.82 328.62 182.74 333.33
  C 183.31 336.28 182.38 343.11 180.43 345.51
  Q 177.03 349.70 172.49 352.72
  A 1.69 1.66 27.7 0 1 171.56 353.00
  C 168.03 353.00 160.11 353.90 157.33 351.91
  Z
  M 156.99 334.96
  Q 156.38 336.33 156.87 337.75
  L 158.83 343.47
  A 0.78 0.78 0.0 0 0 159.57 344.00
  L 171.44 344.00
  A 0.81 0.80 -81.8 0 0 172.21 343.42
  L 174.35 336.13
  Q 174.48 335.69 174.23 335.31
  Q 173.60 334.33 172.16 330.81
  Q 171.64 329.55 170.25 330.24
  A 0.99 0.97 -37.4 0 1 169.19 330.11
  Q 167.12 328.35 166.03 325.89
  Q 165.73 325.19 165.26 325.79
  L 162.17 329.78
  A 1.07 1.06 -67.2 0 1 161.17 330.19
  L 159.70 329.97
  A 0.62 0.62 0.0 0 0 159.04 330.34
  L 156.99 334.96
  Z"
/>
<rect fill="#1b396a" x="-5.37" y="-2.25" transform="translate(165.38,337.00) rotate(-0.1)" width="10.74" height="4.50" rx="0.64"/>
<path fill="#1b396a" d="
  M 9.63 394.25
  L 8.25 394.25
  Q 7.75 394.25 7.75 393.75
  L 7.75 353.70
  Q 7.75 353.12 8.33 353.03
  C 9.42 352.86 10.57 353.11 11.58 352.89
  C 18.99 351.21 26.95 348.51 34.55 348.50
  C 41.67 348.49 48.75 347.96 55.77 349.53
  Q 61.07 350.72 66.38 351.91
  C 74.44 353.71 82.99 353.03 91.32 353.04
  A 0.46 0.45 34.3 0 1 91.49 353.92
  Q 90.67 354.24 89.54 354.86
  C 71.74 364.70 53.27 373.50 35.83 383.91
  Q 25.67 389.98 14.55 394.14
  Q 14.03 394.34 13.79 394.85
  L 12.25 398.21
  A 0.35 0.35 0.0 0 1 11.61 398.18
  L 10.37 394.77
  A 0.79 0.79 0.0 0 0 9.63 394.25
  Z"
/>
<path fill="#1b396a" d="
  M 190.54 388.52
  Q 180.25 377.02 174.42 362.61
  Q 174.23 362.15 174.58 361.79
  L 178.19 358.19
  Q 178.63 357.75 179.25 357.75
  L 182.31 357.75
  A 0.90 0.88 16.0 0 0 183.06 357.35
  L 188.37 349.52
  A 0.24 0.24 0.0 0 1 188.81 349.66
  C 188.54 359.10 189.10 369.06 192.73 377.76
  Q 195.17 383.60 198.58 389.00
  Q 198.88 389.46 199.41 389.59
  Q 201.65 390.16 201.18 392.74
  Q 201.10 393.23 201.50 393.51
  Q 204.07 395.35 202.69 398.60
  A 0.80 0.80 0.0 0 1 201.25 398.67
  L 199.04 394.67
  Q 198.81 394.24 198.38 394.00
  C 195.49 392.32 192.80 391.04 190.54 388.52
  Z"
/>
<path fill="#1b396a" d="
  M 107.63 353.12
  A 0.38 0.38 0.0 0 1 107.91 353.72
  Q 93.93 372.81 78.41 390.78
  Q 75.37 394.30 72.71 398.73
  Q 65.56 410.62 56.76 421.33
  C 47.64 432.44 40.55 446.27 33.60 458.83
  Q 29.46 466.30 13.30 490.07
  Q 13.00 490.50 12.48 490.50
  L 9.20 490.50
  Q 8.65 490.50 8.46 489.98
  C 2.73 473.68 -0.21 452.27 2.96 434.82
  C 3.92 429.55 4.37 424.00 6.88 419.23
  Q 9.81 413.65 13.10 408.27
  Q 13.36 407.84 13.80 407.62
  Q 20.21 404.41 26.36 400.82
  C 32.46 397.26 37.90 392.39 43.66 387.78
  C 48.79 383.67 54.87 380.95 60.63 377.74
  C 66.48 374.49 71.59 370.17 76.94 366.08
  C 83.08 361.38 89.41 357.81 96.05 354.12
  C 99.36 352.28 103.94 352.93 107.63 353.12
  Z"
/>
<path fill="#1b396a" d="
  M 0.00 554.68
  L 0.00 554.22
  C 3.56 546.23 6.40 538.39 10.62 530.56
  C 16.08 520.43 19.88 509.52 25.68 499.66
  Q 32.00 488.90 37.13 477.53
  C 43.63 463.14 54.23 450.99 61.27 436.75
  Q 65.54 428.12 67.27 425.54
  Q 86.27 397.15 118.33 357.96
  Q 118.62 357.61 119.08 357.60
  L 128.90 357.47
  Q 129.62 357.46 129.36 358.13
  C 123.38 373.76 118.25 389.69 112.33 405.25
  Q 111.05 408.62 110.16 411.97
  C 104.97 431.53 101.71 448.69 98.01 467.20
  C 90.24 506.01 88.97 546.75 87.78 586.22
  Q 87.76 586.75 87.24 586.75
  Q 73.14 586.75 59.13 586.77
  Q 54.97 586.77 51.00 585.76
  Q 37.84 582.42 24.78 578.72
  C 19.92 577.34 9.66 570.64 6.99 566.34
  Q 3.41 560.57 0.00 554.68
  Z"
/>
<path fill="#1b396a" d="
  M 113.54 591.63
  A 1.11 1.11 0.0 0 1 112.76 590.66
  Q 109.52 549.15 111.15 507.68
  C 112.55 471.91 115.98 436.56 124.61 399.40
  C 127.77 385.81 133.27 371.97 137.58 358.23
  A 0.37 0.37 0.0 0 1 138.20 358.08
  L 142.03 361.91
  Q 142.39 362.26 142.89 362.26
  L 155.60 362.15
  Q 156.21 362.15 156.16 362.75
  Q 153.45 394.47 156.49 420.24
  C 157.85 431.75 161.01 447.76 166.29 459.79
  Q 171.47 471.60 176.21 483.60
  Q 177.08 485.81 178.83 487.60
  Q 186.58 495.47 194.29 506.69
  Q 194.99 507.71 198.23 510.49
  Q 214.20 524.15 231.54 536.01
  Q 231.92 536.27 231.81 536.72
  Q 229.14 547.50 227.75 550.49
  C 221.11 564.78 206.44 583.61 189.80 588.42
  Q 177.90 591.87 165.91 594.99
  Q 162.04 596.00 157.96 596.00
  Q 145.46 595.99 132.96 596.00
  C 126.32 596.01 119.90 593.56 113.54 591.63
  Z"
/>
<path fill="#1b396a" d="
  M 1344.74 362.30
  L 1348.52 366.82
  A 0.30 0.30 0.0 0 1 1348.51 367.21
  L 1345.29 370.90
  A 0.30 0.30 0.0 0 1 1345.06 371.00
  L 1337.94 371.00
  A 0.30 0.30 0.0 0 1 1337.70 370.51
  L 1344.28 362.31
  A 0.30 0.30 0.0 0 1 1344.74 362.30
  Z"
/>
<path fill="#1b396a" d="
  M 203.44 492.06
  C 191.35 481.60 184.21 463.21 176.57 448.97
  C 172.00 440.46 169.57 430.78 166.54 421.66
  C 160.81 404.40 159.12 386.16 159.82 368.02
  A 1.58 1.58 0.0 0 1 162.96 367.81
  C 165.82 384.54 173.38 399.57 183.94 414.06
  Q 186.53 417.61 190.07 420.46
  Q 204.86 432.38 220.86 442.65
  Q 224.15 444.76 228.00 445.95
  Q 240.88 449.95 253.85 453.75
  Q 254.31 453.89 254.77 453.75
  L 284.53 444.99
  A 0.71 0.71 0.0 0 1 285.42 445.50
  C 286.78 451.07 288.58 456.35 288.50 462.13
  Q 288.38 470.56 287.74 473.24
  C 286.02 480.40 284.89 488.04 281.55 494.53
  Q 275.58 506.14 267.65 516.55
  C 265.45 519.44 259.20 521.05 255.79 522.40
  A 1.55 1.52 -47.4 0 1 254.84 522.45
  C 248.41 520.66 242.21 519.28 236.46 515.71
  Q 216.29 503.18 203.44 492.06
  Z"
/>
<path fill="#1b396a" d="
  M 237.97 416.20
  L 240.35 413.21
  Q 240.78 412.67 241.18 413.23
  L 243.75 416.83
  Q 244.04 417.25 244.55 417.25
  L 248.32 417.25
  Q 248.85 417.25 249.27 417.57
  L 260.67 426.37
  A 1.01 0.95 -24.9 0 0 261.27 426.57
  L 276.27 426.33
  A 0.40 0.40 0.0 0 1 276.61 426.95
  C 272.97 432.49 266.97 436.08 261.64 439.84
  Q 261.22 440.13 260.71 440.15
  Q 249.24 440.48 237.81 440.06
  C 231.97 439.84 223.37 437.12 218.56 433.75
  Q 208.53 426.72 198.85 419.21
  Q 196.13 417.10 193.88 414.07
  Q 187.38 405.32 179.96 397.34
  C 173.02 389.88 169.00 377.03 166.88 367.24
  Q 166.78 366.75 167.28 366.75
  L 171.27 366.75
  Q 171.86 366.75 172.16 367.25
  Q 178.57 377.88 185.39 388.22
  C 192.32 398.72 203.48 406.63 214.50 412.40
  Q 214.92 412.62 215.40 412.60
  Q 222.27 412.27 229.18 412.64
  C 232.20 412.81 234.00 414.66 236.19 416.40
  A 1.26 1.26 0.0 0 0 237.97 416.20
  Z"
/>
<path fill="#1b396a" d="
  M 694.69 445.81
  C 691.52 442.90 689.21 433.92 687.65 429.65
  C 684.38 420.67 686.41 411.39 687.77 402.34
  C 688.62 396.65 692.81 390.36 695.47 385.24
  A 1.86 1.81 89.2 0 1 696.19 384.48
  L 717.34 372.36
  Q 717.80 372.09 718.33 372.15
  C 722.91 372.61 728.30 372.47 732.39 374.73
  Q 736.70 377.11 740.95 379.54
  A 1.11 1.09 15.3 0 1 741.50 380.49
  L 741.50 402.24
  A 0.39 0.39 0.0 0 1 740.81 402.48
  C 735.66 395.95 730.31 392.11 722.09 390.36
  Q 721.56 390.25 721.07 390.50
  L 708.03 397.22
  Q 707.55 397.47 707.34 397.97
  C 705.13 403.49 701.11 411.01 702.21 417.09
  Q 703.44 423.95 705.05 430.73
  A 1.39 1.38 -74.4 0 0 705.44 431.43
  L 714.73 440.53
  Q 715.07 440.86 715.53 440.94
  Q 722.74 442.19 725.24 441.48
  Q 733.89 439.04 740.51 432.36
  A 0.57 0.57 0.0 0 1 741.48 432.76
  L 741.49 452.51
  Q 741.49 452.97 741.09 453.20
  Q 737.16 455.44 733.33 457.74
  C 729.73 459.90 721.72 461.28 717.62 460.44
  C 714.32 459.76 710.33 459.63 707.68 457.36
  Q 701.07 451.69 694.69 445.81
  Z"
/>
<path fill="#1b396a" d="
  M 792.77 450.14
  Q 790.68 448.28 789.26 445.88
  Q 787.10 442.25 784.26 436.35
  C 781.85 431.33 781.60 425.23 780.76 419.76
  Q 780.26 416.51 780.76 413.24
  C 781.61 407.79 781.82 401.53 784.28 396.55
  Q 786.39 392.28 788.60 388.05
  C 790.97 383.52 795.46 380.32 799.28 377.06
  C 802.44 374.35 808.66 373.56 812.68 372.54
  C 816.18 371.65 827.34 374.67 830.13 377.02
  C 834.08 380.34 838.75 383.75 841.09 388.49
  C 843.31 392.98 846.17 397.27 846.95 402.27
  Q 847.79 407.57 848.49 412.89
  C 849.26 418.70 847.89 424.40 847.03 430.14
  C 846.23 435.55 841.31 445.93 837.28 449.66
  C 834.06 452.64 829.99 457.11 825.66 458.20
  Q 821.33 459.29 817.03 460.33
  C 813.00 461.30 807.13 459.09 803.19 457.96
  C 799.28 456.83 795.75 452.81 792.77 450.14
  Z
  M 805.69 438.31
  Q 806.34 438.88 806.86 439.60
  Q 807.13 439.98 807.59 440.11
  L 814.26 441.97
  Q 814.72 442.10 815.17 441.97
  C 818.50 440.99 821.58 440.64 824.11 438.16
  C 834.17 428.31 834.32 411.48 828.14 399.73
  C 827.02 397.61 825.33 396.17 823.62 394.49
  C 819.28 390.25 810.11 390.21 805.69 394.33
  C 794.41 404.86 793.75 427.87 805.69 438.31
  Z"
/>
<path fill="#1b396a" d="
  M 1545.07 451.95
  C 1541.25 448.60 1539.06 442.83 1536.84 438.32
  C 1534.18 432.92 1532.36 420.82 1533.26 414.88
  C 1534.08 409.45 1534.31 403.32 1536.79 398.36
  C 1538.96 394.01 1540.95 388.50 1544.57 385.20
  Q 1548.00 382.07 1551.53 379.06
  C 1554.94 376.14 1561.07 375.35 1565.37 374.30
  C 1569.05 373.40 1574.99 375.77 1578.69 376.70
  C 1583.06 377.79 1591.69 385.79 1593.67 389.83
  C 1595.99 394.58 1598.91 399.04 1599.81 404.29
  C 1600.90 410.65 1602.19 416.75 1601.22 423.25
  C 1600.39 428.80 1600.03 434.40 1597.33 439.48
  C 1595.16 443.57 1593.57 448.05 1590.26 451.27
  C 1586.81 454.62 1582.59 458.96 1577.81 460.17
  C 1574.07 461.11 1568.90 463.18 1565.09 462.24
  Q 1560.47 461.09 1555.88 459.86
  C 1552.01 458.83 1548.07 454.58 1545.07 451.95
  Z
  M 1558.69 440.55
  C 1566.17 447.00 1577.57 442.39 1581.37 434.24
  C 1587.00 422.19 1586.88 405.49 1576.05 395.93
  C 1573.76 393.90 1570.79 393.72 1567.97 392.67
  Q 1567.51 392.50 1567.05 392.64
  C 1564.00 393.54 1560.99 393.82 1558.59 396.05
  C 1556.48 398.01 1554.60 399.73 1553.34 402.37
  C 1547.66 414.29 1547.74 431.12 1558.69 440.55
  Z"
/>
<path fill="#1b396a" d="
  M 1527.22 454.29
  A 0.90 0.88 -15.3 0 1 1526.77 455.06
  C 1522.80 457.35 1518.52 460.60 1513.93 461.39
  C 1510.16 462.04 1506.94 463.07 1503.07 462.27
  C 1499.32 461.49 1495.95 461.17 1492.65 459.08
  C 1488.88 456.70 1485.29 454.75 1482.76 450.87
  C 1480.02 446.68 1475.53 441.41 1474.49 436.53
  C 1473.26 430.73 1470.96 423.84 1471.55 417.94
  Q 1472.18 411.68 1472.90 405.42
  C 1473.52 400.01 1477.55 393.89 1479.99 389.01
  C 1481.97 385.04 1485.69 382.50 1489.03 379.79
  C 1492.45 377.01 1495.94 376.20 1500.02 374.87
  C 1504.37 373.44 1508.54 374.28 1512.93 374.83
  C 1517.60 375.41 1522.16 378.75 1526.21 380.98
  A 1.97 1.96 14.4 0 1 1527.23 382.70
  L 1527.24 403.99
  A 0.39 0.38 -63.9 0 1 1526.55 404.23
  Q 1522.43 398.92 1516.59 395.17
  C 1511.86 392.14 1507.22 391.84 1501.90 393.02
  C 1498.45 393.78 1493.62 398.23 1492.00 401.30
  Q 1483.34 417.73 1491.68 434.24
  C 1493.59 438.01 1497.39 440.17 1500.72 442.62
  Q 1501.11 442.90 1501.59 442.95
  C 1505.20 443.31 1509.28 444.14 1512.73 442.60
  C 1515.54 441.34 1518.24 440.77 1520.67 438.81
  Q 1523.60 436.45 1526.53 434.15
  A 0.44 0.44 0.0 0 1 1527.24 434.49
  L 1527.22 454.29
  Z"
/>
<path fill="#1b396a" d="
  M 966.55 446.28
  L 940.30 446.09
  A 0.76 0.75 -80.1 0 0 939.59 446.59
  L 935.55 457.72
  Q 935.36 458.25 934.79 458.25
  L 919.78 458.25
  A 0.47 0.46 -79.2 0 1 919.35 457.61
  L 952.10 375.91
  A 2.13 2.13 0.0 0 1 956.06 375.93
  L 987.95 457.55
  Q 988.23 458.25 987.47 458.25
  L 971.95 458.25
  A 0.80 0.78 -9.2 0 1 971.20 457.72
  L 967.35 446.85
  A 0.85 0.85 0.0 0 0 966.55 446.28
  Z
  M 944.51 431.30
  A 0.32 0.32 0.0 0 0 944.81 431.72
  L 961.73 431.78
  A 0.32 0.32 0.0 0 0 962.03 431.36
  L 953.66 406.47
  A 0.32 0.32 0.0 0 0 953.05 406.47
  L 944.51 431.30
  Z"
/>
<path fill="#1b396a" d="
  M 571.79 413.54
  L 571.97 457.64
  A 0.61 0.60 -0.5 0 1 571.36 458.25
  L 557.75 458.25
  Q 557.00 458.25 557.00 457.50
  L 557.00 375.56
  Q 557.00 375.22 557.31 375.09
  Q 560.17 373.89 561.40 375.33
  Q 580.55 397.69 600.22 420.45
  A 0.41 0.41 0.0 0 0 600.93 420.10
  Q 600.74 419.21 600.73 418.00
  Q 600.51 396.63 600.46 375.29
  A 0.54 0.54 0.0 0 1 601.00 374.75
  L 615.00 374.75
  A 0.50 0.50 0.0 0 1 615.50 375.25
  L 615.50 457.50
  A 0.75 0.75 0.0 0 1 614.75 458.25
  L 611.55 458.25
  Q 611.04 458.25 610.70 457.86
  L 572.36 413.33
  A 0.32 0.32 0.0 0 0 571.79 413.54
  Z"
/>
<path fill="#1b396a" d="
  M 640.72 446.60
  L 636.65 457.75
  A 0.76 0.75 -80.1 0 1 635.94 458.25
  L 621.03 458.25
  Q 620.30 458.25 620.57 457.56
  L 653.20 375.99
  A 2.17 2.17 0.0 0 1 657.24 376.00
  L 689.15 457.59
  Q 689.41 458.25 688.70 458.25
  L 673.21 458.25
  Q 672.56 458.25 672.34 457.64
  L 668.62 447.07
  A 1.27 1.25 80.0 0 0 667.44 446.23
  L 641.34 446.16
  A 0.67 0.66 -79.8 0 0 640.72 446.60
  Z
  M 645.79 431.17
  A 0.42 0.42 0.0 0 0 646.19 431.72
  L 662.73 431.78
  A 0.42 0.42 0.0 0 0 663.13 431.23
  L 654.95 406.65
  A 0.42 0.42 0.0 0 0 654.15 406.64
  L 645.79 431.17
  Z"
/>
<rect fill="#1b396a" x="754.75" y="374.75" width="16.24" height="83.50" rx="0.75"/>
<path fill="#1b396a" d="
  M 871.48 413.00
  A 0.37 0.37 0.0 0 0 870.75 413.08
  L 870.75 457.75
  A 0.50 0.50 0.0 0 1 870.25 458.25
  L 856.66 458.25
  Q 856.06 458.25 856.06 457.65
  L 855.81 375.53
  Q 855.80 375.02 856.30 374.88
  C 858.33 374.33 859.62 374.60 861.03 376.25
  Q 879.77 398.10 898.71 420.06
  Q 899.51 420.99 899.51 419.76
  L 899.48 375.23
  Q 899.48 374.75 899.96 374.75
  L 913.75 374.75
  Q 914.25 374.75 914.25 375.25
  L 914.25 457.25
  Q 914.25 458.00 913.50 458.00
  L 910.48 458.00
  A 1.39 1.37 -20.3 0 1 909.44 457.53
  Q 890.71 435.88 872.00 414.23
  C 871.76 413.94 871.55 413.33 871.48 413.00
  Z"
/>
<path fill="#1b396a" d="
  M 1010.10 440.25
  L 1035.14 440.25
  A 0.61 0.61 0.0 0 1 1035.75 440.86
  L 1035.75 457.64
  A 0.61 0.61 0.0 0 1 1035.14 458.25
  L 993.86 458.25
  A 0.61 0.61 0.0 0 1 993.25 457.64
  L 993.25 375.36
  A 0.61 0.61 0.0 0 1 993.86 374.75
  L 1008.90 374.75
  A 0.61 0.61 0.0 0 1 1009.51 375.36
  L 1009.49 439.64
  A 0.61 0.61 0.0 0 0 1010.10 440.25
  Z"
/>
<path fill="#1b396a" d="
  M 1112.05 375.67
  C 1140.23 380.55 1147.64 410.30 1139.93 433.69
  C 1138.19 438.98 1129.14 450.96 1123.85 452.81
  C 1118.20 454.80 1111.58 457.95 1105.59 458.12
  Q 1095.41 458.41 1085.21 458.19
  Q 1084.75 458.19 1084.75 457.73
  L 1084.75 375.60
  Q 1084.75 375.06 1085.29 375.02
  Q 1101.94 373.91 1112.05 375.67
  Z
  M 1111.05 393.54
  Q 1106.32 392.10 1101.30 392.59
  Q 1100.74 392.64 1100.74 393.20
  L 1100.76 438.49
  Q 1100.76 441.12 1103.30 440.46
  L 1116.86 436.96
  Q 1117.37 436.83 1117.64 436.38
  Q 1121.43 429.96 1125.18 423.49
  C 1127.54 419.43 1126.35 412.74 1125.36 408.40
  C 1124.46 404.45 1118.33 399.25 1115.45 396.33
  Q 1113.38 394.24 1111.05 393.54
  Z"
/>
<path fill="#1b396a" d="
  M 1167.50 424.57
  L 1167.50 440.07
  A 0.56 0.56 0.0 0 0 1168.06 440.63
  L 1193.35 440.44
  A 0.56 0.56 0.0 0 1 1193.92 441.01
  L 1193.77 457.69
  A 0.56 0.56 0.0 0 1 1193.21 458.25
  L 1152.56 458.25
  A 0.56 0.56 0.0 0 1 1152.00 457.69
  L 1152.00 375.31
  A 0.56 0.56 0.0 0 1 1152.56 374.75
  L 1192.94 374.75
  A 0.56 0.56 0.0 0 1 1193.50 375.31
  L 1193.50 391.44
  A 0.56 0.56 0.0 0 1 1192.94 392.00
  L 1168.06 392.00
  A 0.56 0.56 0.0 0 0 1167.50 392.56
  L 1167.50 406.44
  A 0.56 0.56 0.0 0 0 1168.06 407.00
  L 1184.19 407.00
  A 0.56 0.56 0.0 0 1 1184.75 407.56
  L 1184.75 423.76
  A 0.56 0.56 0.0 0 1 1184.18 424.32
  L 1168.07 424.01
  A 0.56 0.56 0.0 0 0 1167.50 424.57
  Z"
/>
<path fill="#1b396a" d="
  M 1293.41 422.34
  A 0.17 0.17 0.0 0 0 1293.08 422.30
  L 1277.24 458.51
  A 3.08 3.08 0.0 0 1 1271.63 458.57
  L 1255.07 422.68
  Q 1254.89 422.29 1255.17 421.96
  Q 1255.38 421.71 1255.05 421.41
  A 0.40 0.39 25.6 0 0 1254.39 421.64
  L 1248.64 459.29
  A 1.18 1.17 4.7 0 1 1247.45 460.29
  L 1234.74 460.00
  A 0.62 0.62 0.0 0 1 1234.14 459.28
  L 1247.74 377.75
  A 1.69 1.69 0.0 0 1 1250.94 377.31
  L 1274.77 427.99
  A 0.13 0.13 0.0 0 0 1275.00 427.99
  L 1297.47 377.33
  A 1.81 1.80 -37.7 0 1 1300.90 377.77
  L 1314.29 459.35
  Q 1314.42 460.12 1313.64 460.12
  L 1299.77 460.27
  Q 1299.08 460.28 1298.97 459.59
  L 1293.41 422.34
  Z"
/>
<path fill="#1b396a" d="
  M 1337.84 442.50
  L 1363.18 442.50
  A 0.57 0.57 0.0 0 1 1363.75 443.07
  L 1363.75 459.64
  A 0.57 0.57 0.0 0 1 1363.18 460.21
  L 1322.07 460.25
  A 0.57 0.57 0.0 0 1 1321.50 459.68
  L 1321.50 377.07
  A 0.57 0.57 0.0 0 1 1322.07 376.50
  L 1362.68 376.50
  A 0.57 0.57 0.0 0 1 1363.25 377.07
  L 1363.25 393.18
  A 0.57 0.57 0.0 0 1 1362.68 393.75
  L 1337.82 393.75
  A 0.57 0.57 0.0 0 0 1337.25 394.32
  L 1337.25 408.45
  A 0.57 0.57 0.0 0 0 1337.82 409.02
  L 1352.68 408.95
  A 0.57 0.57 0.0 0 1 1353.25 409.52
  L 1353.25 425.43
  A 0.57 0.57 0.0 0 1 1352.68 426.00
  L 1337.77 426.00
  A 0.57 0.57 0.0 0 0 1337.20 426.57
  L 1337.27 441.93
  A 0.57 0.57 0.0 0 0 1337.84 442.50
  Z"
/>
<path fill="#1b396a" d="
  M 1403.45 432.85
  Q 1402.81 431.75 1402.19 432.87
  L 1387.48 459.60
  Q 1387.21 460.10 1386.65 460.10
  L 1370.26 460.31
  Q 1369.35 460.32 1369.80 459.54
  L 1393.60 417.33
  Q 1393.88 416.82 1393.62 416.30
  L 1374.29 377.24
  A 0.51 0.51 0.0 0 1 1374.75 376.50
  L 1389.04 376.50
  Q 1389.58 376.50 1389.85 376.96
  L 1403.05 399.66
  Q 1403.50 400.44 1403.94 399.65
  L 1416.57 376.89
  A 0.77 0.75 -75.0 0 1 1417.23 376.50
  L 1433.75 376.50
  Q 1434.40 376.50 1434.08 377.07
  L 1412.76 414.59
  Q 1412.47 415.11 1412.77 415.63
  L 1438.84 459.46
  Q 1439.22 460.11 1438.47 460.11
  L 1420.01 460.30
  A 1.01 1.01 0.0 0 1 1419.13 459.79
  L 1403.45 432.85
  Z"
/>
<rect fill="#1b396a" x="1447.50" y="376.50" width="16.24" height="83.70" rx="0.67"/>
<path fill="#1b396a" d="
  M 1655.71 439.99
  A 21.72 21.72 0.0 0 1 1633.99 461.71
  A 21.72 21.72 0.0 0 1 1612.27 439.99
  A 21.72 21.72 0.0 0 1 1633.99 418.27
  A 21.72 21.72 0.0 0 1 1655.71 439.99
  Z
  M 1652.68 439.93
  A 18.71 18.71 0.0 0 0 1633.97 421.22
  A 18.71 18.71 0.0 0 0 1615.26 439.93
  A 18.71 18.71 0.0 0 0 1633.97 458.64
  A 18.71 18.71 0.0 0 0 1652.68 439.93
  Z"
/>
<path fill="#1b396a" d="
  M 1638.05 442.76
  L 1630.03 442.40
  A 0.76 0.75 -88.6 0 0 1629.24 443.16
  L 1629.33 450.43
  A 1.58 1.58 0.0 0 1 1627.47 452.00
  L 1625.85 451.71
  A 0.73 0.73 0.0 0 1 1625.25 450.99
  L 1625.25 429.10
  A 1.14 1.14 0.0 0 1 1626.19 427.98
  C 1630.51 427.20 1639.12 426.82 1642.30 430.58
  C 1645.17 433.98 1643.73 437.69 1640.41 440.20
  A 0.52 0.51 -46.7 0 0 1640.43 441.04
  C 1644.19 443.54 1643.43 446.66 1643.77 450.30
  A 1.22 1.22 0.0 0 1 1643.32 451.36
  Q 1641.94 452.47 1640.21 451.69
  Q 1639.89 451.54 1639.84 451.19
  L 1638.92 443.57
  A 0.92 0.92 0.0 0 0 1638.05 442.76
  Z
  M 1629.27 432.35
  L 1629.25 437.63
  A 1.84 1.84 0.0 0 0 1631.08 439.48
  L 1635.16 439.49
  A 4.58 3.84 0.2 0 0 1639.76 435.67
  L 1639.76 434.39
  A 4.58 3.84 0.2 0 0 1635.20 430.53
  L 1631.12 430.52
  A 1.84 1.84 0.0 0 0 1629.27 432.35
  Z"
/>
</svg>
